<svg width="36" height="36" viewBox="0 0 36 36" fill="none" xmlns="http://www.w3.org/2000/svg">
<g clip-path="url(#clip0_68_50)">
<path d="M35.8189 19.6128C36.0239 18.2047 36.0532 16.7978 35.9064 15.4246C35.9088 15.3781 35.9003 15.3341 35.8917 15.2882C35.5209 12.0871 34.1856 9.08674 31.8486 6.74973C31.4276 6.3281 30.9717 5.93524 30.4656 5.54849C30.0954 5.06261 29.6933 4.59508 29.2521 4.15387C23.1682 -1.93007 12.5889 -1.2502 5.66965 5.66843C-1.24897 12.5871 -1.92823 23.1663 4.15571 29.2503C4.58896 29.6835 5.05159 30.0697 5.52707 30.4344C5.92177 30.9527 6.32199 31.4165 6.75218 31.8461C8.80831 33.9023 11.3785 35.18 14.1457 35.7118C14.1579 35.7167 14.1708 35.7161 14.183 35.7203C14.2356 35.7301 14.2883 35.7418 14.3409 35.7509C14.3537 35.7516 14.366 35.7583 14.3788 35.7583C14.3813 35.7583 14.3831 35.7571 14.3856 35.7571C15.2925 35.9162 16.2177 36 17.154 36C17.7139 36 18.2775 35.9706 18.8417 35.9137C18.8497 35.9143 18.8576 35.9186 18.8656 35.9186C18.8931 35.9186 18.9194 35.9064 18.947 35.9027C20.3899 35.7491 21.8384 35.4113 23.2532 34.8905C23.2789 34.882 23.3034 34.8728 23.3285 34.8612C24.3082 34.4958 25.2702 34.0412 26.204 33.502C26.2646 33.4812 26.3191 33.4464 26.3717 33.406C27.2712 32.8748 28.142 32.2641 28.9725 31.572C28.9725 31.572 28.9743 31.5708 28.9755 31.5701L28.9761 31.5689C29.4412 31.1809 29.8953 30.7703 30.3334 30.3322C32.239 28.4266 33.6685 26.2426 34.6164 23.9521C34.628 23.9282 34.6384 23.9062 34.647 23.8817C35.2033 22.522 35.5888 21.1249 35.8023 19.7266C35.8097 19.688 35.8201 19.6513 35.8189 19.6128ZM33.827 22.5746L32.1882 20.9358C32.2733 20.7155 32.3553 20.494 32.4318 20.2718C32.4654 20.1745 32.496 20.0766 32.5278 19.9787C32.6123 19.718 32.6906 19.4567 32.7634 19.1948C32.791 19.0951 32.821 18.9953 32.8467 18.895C32.8999 18.6894 32.9464 18.4831 32.9917 18.2769L34.5436 19.8288C34.3857 20.7498 34.1452 21.6677 33.827 22.5746ZM32.4654 25.5401L30.7691 23.8438C30.8083 23.7783 30.8487 23.7134 30.8866 23.6473C30.9013 23.6216 30.9178 23.5965 30.9325 23.5714C31.1247 23.2373 31.3033 22.8983 31.4735 22.5574C31.5096 22.4846 31.5444 22.4118 31.5793 22.339C31.6099 22.276 31.6411 22.2129 31.6711 22.1499L33.3381 23.8168C33.0823 24.4006 32.7898 24.9752 32.4654 25.5401ZM30.6975 28.0992L28.9773 26.379C29.1426 26.1808 29.3023 25.9794 29.4583 25.7763C29.47 25.761 29.4828 25.7463 29.4951 25.7304C29.7037 25.4574 29.9032 25.1808 30.0954 24.9006L31.8021 26.6073C31.4618 27.1164 31.0959 27.6152 30.6975 28.0992ZM33.253 16.8076C33.2683 16.6938 33.2836 16.5806 33.2971 16.4668C33.3301 16.1737 33.3558 15.8805 33.3735 15.588C33.3839 15.4197 33.3888 15.2527 33.3937 15.085C33.3992 14.9155 33.4017 14.7466 33.4023 14.5777C33.4023 14.5067 33.4066 14.4351 33.406 14.3641L34.707 15.6651C34.7933 16.5292 34.8024 17.4079 34.7376 18.2922L33.253 16.8076ZM32.63 9.64423C33.4133 10.8449 33.9677 12.166 34.3227 13.5503L33.2762 12.5038C33.264 12.4071 33.2475 12.3117 33.2334 12.2162C33.2102 12.0571 33.1875 11.898 33.1594 11.7401C33.108 11.4525 33.0486 11.1674 32.9813 10.8846C32.9507 10.758 32.9158 10.6337 32.8822 10.5077C32.824 10.2898 32.761 10.0732 32.6931 9.85841C32.6698 9.78742 32.6533 9.7146 32.63 9.64423ZM6.53555 6.53311C10.0493 3.01933 14.5624 1.22022 18.8497 1.22022C22.4222 1.22022 25.8387 2.47042 28.3874 5.01916C28.7307 5.36246 29.0496 5.72167 29.3457 6.09434L29.5048 6.30485C29.5171 6.32076 29.5287 6.33728 29.5409 6.35319C29.8108 6.71118 30.0593 7.08018 30.2875 7.45959C30.2924 7.46815 30.2973 7.47672 30.3022 7.48529C30.5262 7.8598 30.7299 8.24471 30.9135 8.63758C30.9221 8.65532 30.9294 8.6743 30.9374 8.69204C31.1112 9.06777 31.266 9.45146 31.4031 9.84127C31.4147 9.87554 31.427 9.9092 31.4386 9.94347C31.5579 10.2923 31.6583 10.6472 31.7488 11.0052C31.7696 11.0884 31.7935 11.1704 31.8131 11.2542C31.892 11.5914 31.9532 11.9329 32.0071 12.2762C32.0254 12.3949 32.0456 12.513 32.0609 12.633C32.1038 12.9597 32.1331 13.289 32.1533 13.62C32.1619 13.7553 32.1692 13.8911 32.1741 14.0276C32.1858 14.355 32.1864 14.6842 32.1766 15.014C32.1723 15.1493 32.1656 15.2839 32.1582 15.4191C32.1393 15.7575 32.1117 16.0972 32.0707 16.4368C32.0566 16.5555 32.0377 16.6742 32.0211 16.7929C31.9697 17.1528 31.9104 17.512 31.8339 17.8706C31.8161 17.955 31.7935 18.0389 31.7745 18.1227C31.6919 18.4837 31.5995 18.8436 31.4918 19.2022C31.4759 19.256 31.4612 19.3105 31.4447 19.3643C31.3217 19.7609 31.1816 20.1543 31.0286 20.5454C31.0059 20.6041 30.9851 20.6629 30.9613 20.721C30.8034 21.1126 30.629 21.5 30.4411 21.8837C30.4117 21.9437 30.3836 22.0036 30.3536 22.063C30.1615 22.4455 29.9534 22.823 29.7319 23.1963C29.6982 23.2532 29.6639 23.3095 29.6297 23.3658C29.4014 23.7397 29.1597 24.1081 28.9021 24.4698C28.8666 24.5193 28.8299 24.5683 28.7938 24.6179C28.527 24.9844 28.2473 25.3448 27.9505 25.6961C27.9211 25.731 27.8899 25.7646 27.8599 25.7995C27.5466 26.1649 27.2198 26.5228 26.8735 26.8692C26.5253 27.2174 26.1655 27.5454 25.7983 27.8605C25.7665 27.8881 25.7353 27.9168 25.7028 27.9444C25.3485 28.2442 24.9844 28.5263 24.6148 28.7956C24.5695 28.8286 24.5242 28.8623 24.4783 28.8953C24.1124 29.1566 23.7391 29.4014 23.3609 29.6321C23.3101 29.6627 23.2593 29.6933 23.2086 29.7239C22.8298 29.9497 22.4455 30.1608 22.0563 30.356C22.0049 30.3818 21.9535 30.4062 21.9014 30.4313C21.5092 30.6235 21.1133 30.8015 20.7137 30.9625C20.6659 30.9815 20.6176 30.9992 20.5692 31.0176C20.1629 31.1767 19.7535 31.3229 19.3417 31.4502C19.3062 31.4612 19.2707 31.4698 19.2352 31.4802C18.8583 31.594 18.4788 31.6913 18.0988 31.7776C18.0272 31.7935 17.9556 31.8131 17.884 31.8284C17.515 31.9073 17.1448 31.9679 16.7746 32.0211C16.6669 32.0364 16.5586 32.0536 16.4509 32.0664C16.1021 32.1087 15.7545 32.1368 15.4069 32.1564C15.2802 32.1631 15.1542 32.1698 15.0281 32.1735C14.6903 32.1839 14.3531 32.1827 14.0178 32.1711C13.8899 32.1668 13.762 32.1594 13.6347 32.1515C13.2969 32.1307 12.9603 32.1007 12.6262 32.0566C12.5142 32.042 12.4029 32.023 12.2909 32.0058C11.9408 31.9514 11.5927 31.889 11.2494 31.8082C11.1722 31.7904 11.0964 31.7678 11.0199 31.7488C10.6527 31.6564 10.288 31.553 9.93061 31.43C9.90491 31.4214 9.87982 31.4123 9.85412 31.4037C9.45758 31.2648 9.06777 31.1075 8.68592 30.9307C8.67124 30.9239 8.65655 30.9184 8.64247 30.9117C8.24777 30.7275 7.86102 30.5225 7.48468 30.2973C7.47733 30.293 7.4706 30.2893 7.46326 30.2851C7.08324 30.0568 6.71302 29.8077 6.35442 29.5373C6.34034 29.5269 6.32627 29.5165 6.31219 29.5054L6.09557 29.3427C5.72289 29.0465 5.36429 28.7283 5.02099 28.385C-0.585628 22.7777 0.0936283 12.975 6.53555 6.53311ZM26.0908 32.1466L24.3798 30.4356C24.4606 30.3836 24.542 30.334 24.6221 30.2808C24.6472 30.2643 24.6729 30.249 24.6974 30.2324C25.0236 30.0146 25.3448 29.7833 25.6612 29.5428C25.7383 29.484 25.8136 29.4228 25.8901 29.3635C25.8925 29.3616 25.895 29.3592 25.898 29.3574L27.617 31.0763C27.1201 31.46 26.6128 31.8229 26.0908 32.1466ZM23.2092 33.592L21.5551 31.9379C21.8433 31.8149 22.1297 31.6834 22.4143 31.5451C22.4816 31.512 22.5483 31.4765 22.6156 31.4422C22.8445 31.3272 23.0721 31.2091 23.2979 31.0843L24.9887 32.7751C24.4043 33.0829 23.8107 33.3546 23.2092 33.592ZM19.0737 34.6488L17.5579 33.133C17.687 33.1098 17.8155 33.0878 17.9446 33.0621C18.2708 32.9966 18.597 32.9231 18.9219 32.8387C19.021 32.813 19.1202 32.7818 19.2193 32.7543C19.4782 32.6827 19.7358 32.6056 19.9934 32.5217C20.0974 32.4881 20.2015 32.4538 20.3049 32.4177L21.9284 34.0412C20.9823 34.3312 20.0277 34.5313 19.0737 34.6488ZM10.094 32.7579C10.2103 32.7928 10.3259 32.8277 10.4428 32.8595C10.7806 32.9513 11.1215 33.0302 11.4654 33.0988L12.3013 33.9353C11.373 33.5987 10.4795 33.1716 9.64606 32.6282C9.79415 32.6771 9.9453 32.7133 10.094 32.7579ZM14.6567 34.5595L13.4603 33.3625C13.8036 33.3858 14.1475 33.4005 14.4939 33.4017C14.5153 33.4017 14.5367 33.4048 14.5581 33.4048C14.6958 33.4048 14.8347 33.3974 14.973 33.3937C15.2582 33.3864 15.544 33.3723 15.8304 33.3503C15.8964 33.3454 15.9632 33.3405 16.0292 33.335L17.4581 34.7639C16.5096 34.7822 15.5721 34.7168 14.6567 34.5595ZM28.5698 30.2985L26.8441 28.5728C26.849 28.5686 26.8533 28.5637 26.8582 28.5594C27.1568 28.2944 27.4512 28.0221 27.7382 27.7357C27.8832 27.5907 28.0215 27.4414 28.1616 27.2933L29.8855 29.0171C29.7453 29.1664 29.6156 29.3213 29.4693 29.4669C29.1775 29.7588 28.8745 30.0305 28.5698 30.2985Z" fill="#F59E0B"/>
<path d="M5.4517 13.0491C5.53859 13.0913 5.63038 13.1115 5.72034 13.1115C5.94676 13.1115 6.164 12.9854 6.26987 12.7688C6.43937 12.4231 6.62602 12.0804 6.82429 11.7493C6.99808 11.4592 6.90445 11.0835 6.61439 10.9097C6.32433 10.7359 5.9486 10.8296 5.7748 11.1196C5.55818 11.4801 5.35501 11.854 5.17082 12.2303C5.02272 12.5344 5.14817 12.901 5.4517 13.0491Z" fill="#F59E0B"/>
<path d="M8.539 9.16997C8.70178 9.16997 8.86517 9.10755 8.98694 8.98516C9.25497 8.71713 9.53524 8.45767 9.82102 8.2135C10.078 7.99382 10.108 7.60768 9.88834 7.35066C9.66865 7.09426 9.28251 7.06428 9.0255 7.28335C8.71646 7.54771 8.41233 7.8292 8.11248 8.12906L8.53349 8.57333L8.10085 8.14068C7.86158 8.37995 7.87198 8.7563 8.11125 8.99557C8.22875 9.11245 8.38357 9.16997 8.539 9.16997Z" fill="#F59E0B"/>
<path d="M6.21797 24.643C5.95239 24.8522 5.90711 25.2371 6.11639 25.5021C6.37524 25.8307 6.65857 26.1489 6.93027 26.4188C6.94374 26.4341 6.97127 26.4623 6.98657 26.4763C7.10223 26.5846 7.24848 26.6379 7.39474 26.6379C7.55568 26.6379 7.71601 26.5736 7.83779 26.4476C8.06971 26.2071 8.05992 25.8191 7.82371 25.5829C7.55813 25.3173 7.30723 25.0352 7.07775 24.7445C6.86786 24.479 6.48356 24.4337 6.21797 24.643Z" fill="#F59E0B"/>
<path d="M28.4095 16.2238C28.3722 16.6026 28.3159 16.9869 28.2418 17.3663C28.177 17.698 28.3936 18.0193 28.7253 18.0841C28.7644 18.0921 28.8042 18.0958 28.8428 18.0958C29.1298 18.0958 29.3855 17.8932 29.4425 17.6007C29.5238 17.1834 29.5857 16.7605 29.6273 16.3438C29.6603 16.0078 29.4149 15.708 29.0784 15.6749C28.7424 15.6413 28.4432 15.8879 28.4095 16.2238Z" fill="#F59E0B"/>
<path d="M9.82351 27.8348C9.68338 28.142 9.81862 28.5055 10.1258 28.6457C10.5113 28.8219 10.914 28.978 11.3215 29.1101C11.3846 29.1303 11.4482 29.1401 11.5106 29.1401C11.7689 29.1401 12.0088 28.9755 12.0926 28.7167C12.1966 28.3954 12.021 28.0503 11.6991 27.9456C11.3356 27.8275 10.9776 27.6886 10.6343 27.5319C10.3265 27.3912 9.96365 27.527 9.82351 27.8348Z" fill="#F59E0B"/>
<path d="M28.2374 12.7872C28.2974 13.076 28.552 13.2743 28.8359 13.2743C28.8769 13.2743 28.9191 13.27 28.9614 13.2614C29.2924 13.1929 29.5048 12.8686 29.4356 12.5375C29.3487 12.1195 29.238 11.7034 29.1064 11.3008C29.0017 10.9801 28.6578 10.8039 28.3347 10.9085C28.0135 11.0131 27.8378 11.3589 27.9425 11.6802C28.0606 12.0412 28.1597 12.4133 28.2374 12.7872Z" fill="#F59E0B"/>
<path d="M5.47079 21.7393C5.35269 21.3801 5.25355 21.008 5.17461 20.6335C5.10546 20.303 4.78297 20.0919 4.45007 20.1605C4.11901 20.2296 3.90728 20.5546 3.97704 20.885C4.06516 21.3036 4.17653 21.7191 4.3081 22.1211C4.39255 22.3788 4.63243 22.5422 4.88944 22.5422C4.95248 22.5422 5.01673 22.5317 5.08037 22.5116C5.40103 22.4063 5.57604 22.0606 5.47079 21.7393Z" fill="#F59E0B"/>
<path d="M4.38883 17.7506C4.70031 17.7506 4.96651 17.5138 4.9971 17.1981C5.03443 16.8193 5.09012 16.435 5.16355 16.0549C5.22781 15.7233 5.01057 15.402 4.67889 15.3377C4.34661 15.2741 4.02595 15.4907 3.9617 15.8224C3.88092 16.2398 3.81972 16.6626 3.77934 17.0793C3.74629 17.4159 3.9929 17.7151 4.32886 17.7476C4.34905 17.7494 4.36864 17.7506 4.38883 17.7506Z" fill="#F59E0B"/>
<path d="M15.0929 29.6896C15.0929 29.6896 15.0941 29.6896 15.0954 29.6896C15.5164 29.6884 15.9435 29.6658 16.3651 29.6236C16.7017 29.5899 16.9471 29.29 16.9134 28.9535C16.8798 28.6175 16.5812 28.3746 16.2434 28.4052C15.8609 28.4437 15.4729 28.4639 15.0905 28.4651C14.7527 28.4664 14.4797 28.7417 14.481 29.0795C14.4822 29.4173 14.7557 29.6896 15.0929 29.6896Z" fill="#F59E0B"/>
<path d="M19.8312 28.7699C19.9053 28.7699 19.9805 28.7564 20.0533 28.7277C20.4425 28.5759 20.8317 28.404 21.2118 28.2167C21.5153 28.0668 21.6395 27.7002 21.4902 27.3973C21.3409 27.0944 20.9743 26.9708 20.6708 27.1189C20.3226 27.2908 19.9652 27.4487 19.6091 27.5876C19.2939 27.7106 19.1385 28.0655 19.2615 28.3801C19.3551 28.6224 19.5864 28.7699 19.8312 28.7699Z" fill="#F59E0B"/>
<path d="M17.0847 5.00325C17.1055 5.00325 17.1263 5.00264 17.1472 5.00019C17.5296 4.96164 17.9176 4.94083 18.3001 4.93839C18.6378 4.93655 18.9108 4.66118 18.9089 4.32338C18.9071 3.98682 18.6336 3.7145 18.297 3.7145C18.297 3.7145 18.2952 3.7145 18.2939 3.7145C17.8729 3.71634 17.4452 3.73959 17.0235 3.78243C16.6876 3.81669 16.4428 4.11655 16.4771 4.45312C16.5089 4.76827 16.7745 5.00325 17.0847 5.00325Z" fill="#F59E0B"/>
<path d="M12.4511 6.35626C12.5423 6.35626 12.6347 6.33606 12.7222 6.29261C13.068 6.12127 13.4247 5.96339 13.7833 5.82203C14.0979 5.69842 14.2533 5.34349 14.1291 5.02895C14.0055 4.71441 13.6505 4.55837 13.336 4.6832C12.945 4.83619 12.5552 5.00937 12.1782 5.19601C11.8753 5.34594 11.7517 5.7131 11.9016 6.01602C12.0093 6.23142 12.2259 6.35626 12.4511 6.35626Z" fill="#F59E0B"/>
<path d="M26.3423 8.67369C26.4628 8.82728 26.6428 8.90745 26.8239 8.90745C26.9561 8.90745 27.0901 8.86461 27.2021 8.77649C27.4677 8.56721 27.5136 8.18291 27.3049 7.91732C27.0411 7.58259 26.7541 7.25887 26.4439 6.94862L25.9923 7.36229L26.4249 6.92965C26.1856 6.68977 25.8117 6.70323 25.5725 6.9425C25.3332 7.18177 25.3467 7.58198 25.5853 7.82125C25.854 8.08989 26.1085 8.37689 26.3423 8.67369Z" fill="#F59E0B"/>
<path d="M27.1298 20.65C26.9609 20.9945 26.7737 21.3372 26.5742 21.6695C26.3998 21.9596 26.494 22.3353 26.7835 22.5091C26.882 22.5685 26.9909 22.5966 27.098 22.5966C27.3055 22.5966 27.508 22.4907 27.6231 22.2998C27.8403 21.9382 28.0441 21.5649 28.2283 21.1904C28.3776 20.8868 28.2527 20.5203 27.9492 20.371C27.6457 20.2223 27.2791 20.3471 27.1298 20.65Z" fill="#F59E0B"/>
<path d="M21.6922 5.45242C22.0544 5.5693 22.413 5.7076 22.7582 5.86425C22.8402 5.90158 22.9258 5.91933 23.0109 5.91933C23.2434 5.91933 23.4662 5.78593 23.5684 5.56012C23.7079 5.25231 23.5714 4.88943 23.2636 4.74991C22.8769 4.57428 22.4742 4.41885 22.0679 4.28789C21.746 4.18447 21.4015 4.36071 21.2975 4.68259C21.1934 5.00447 21.3709 5.349 21.6922 5.45242Z" fill="#F59E0B"/>
<path d="M23.5053 26.0651C23.6265 26.2065 23.7985 26.2799 23.971 26.2799C24.1112 26.2799 24.2525 26.2316 24.3682 26.1336C24.684 25.8644 24.993 25.5786 25.2861 25.2849L25.2934 25.2775C25.5327 25.0383 25.5284 24.6546 25.2898 24.4159C25.0505 24.1773 24.6595 24.1809 24.4208 24.4196C24.1497 24.6907 23.8646 24.9544 23.5733 25.2029C23.3163 25.4213 23.2857 25.8075 23.5053 26.0651Z" fill="#F59E0B"/>
<circle cx="16.8284" cy="16.8284" r="9.48512" fill="#F59E0B"/>
</g>
<defs>
<clipPath id="clip0_68_50">
<rect width="36" height="36" fill="white"/>
</clipPath>
</defs>
</svg>
