<svg width="28" height="28" viewBox="0 0 28 28" fill="none" xmlns="http://www.w3.org/2000/svg">
<rect width="28" height="28" rx="5.65113" fill="#4646BB"/>
<path d="M18.9547 6.87884L15.7196 5.80519C14.9002 5.52264 14.0667 5.63559 13.4309 6.08768C12.7952 6.53977 12.442 7.30271 12.442 8.16451V9.02629V14.9318C11.8768 14.6209 11.241 14.4373 10.5487 14.4373C8.37305 14.4373 6.59296 16.2174 6.59296 18.3931C6.59296 20.5688 8.37305 22.3489 10.5487 22.3489C12.7244 22.3489 14.5045 20.5688 14.5045 18.3931V11.9649C14.5186 11.979 14.547 11.979 14.5611 11.9932L17.7963 13.0669C18.093 13.1658 18.4038 13.2223 18.7004 13.2223C19.209 13.2223 19.6894 13.081 20.085 12.7843C20.7207 12.3322 21.0739 11.5693 21.0739 10.7075V9.84574C21.0739 8.5601 20.1697 7.28854 18.9547 6.87884ZM10.5487 20.2862C9.50327 20.2862 8.66979 19.4385 8.66979 18.4072C8.66979 17.3617 9.5174 16.5141 10.5487 16.5141C11.5942 16.5141 12.442 17.3617 12.442 18.4072C12.442 19.4385 11.5942 20.2862 10.5487 20.2862Z" fill="#F8FAFC"/>
</svg>
