<svg width="28" height="28" viewBox="0 0 28 28" fill="none" xmlns="http://www.w3.org/2000/svg">
<path fill-rule="evenodd" clip-rule="evenodd" d="M14 1.45833C9.00651 1.45833 4.95842 5.50642 4.95842 10.5V11.3214C4.95842 12.1345 4.71775 12.9295 4.26674 13.6059L2.92669 15.6159C1.37142 17.9489 2.55875 21.1199 5.26377 21.8576C6.14532 22.0981 7.03431 22.3014 7.92845 22.4678L7.93067 22.4737C8.82782 24.8676 11.2257 26.5417 14 26.5417C16.7744 26.5417 19.1722 24.8676 20.0694 22.4737L20.0716 22.4678C20.9657 22.3014 21.8549 22.0981 22.7364 21.8576C25.4414 21.1199 26.6287 17.9489 25.0735 15.6159L23.7334 13.6059C23.2824 12.9295 23.0417 12.1345 23.0417 11.3214V10.5C23.0417 5.50642 18.9936 1.45833 14 1.45833ZM17.9392 22.7932C15.3225 23.1058 12.6775 23.1057 10.0608 22.793C10.8902 23.9849 12.3329 24.7917 14 24.7917C15.6671 24.7917 17.1098 23.9849 17.9392 22.7932ZM6.70842 10.5C6.70842 6.47292 9.97301 3.20833 14 3.20833C18.0271 3.20833 21.2917 6.47292 21.2917 10.5V11.3214C21.2917 12.4801 21.6347 13.6127 22.2773 14.5767L23.6173 16.5867C24.5101 17.9257 23.8286 19.7458 22.2759 20.1693C16.8577 21.647 11.1425 21.647 5.72422 20.1693C4.17159 19.7458 3.49009 17.9257 4.38279 16.5867L5.72282 14.5767C6.36548 13.6127 6.70842 12.4801 6.70842 11.3214V10.5Z" fill="#475569"/>
</svg>
