<svg width="18" height="14" viewBox="0 0 18 14" fill="none" xmlns="http://www.w3.org/2000/svg">
<path d="M17.69 6.7C17.57 6.44 14.83 0.249997 9 0.249997C8.4418 0.249417 7.8851 0.309766 7.34 0.429996C7.1604 0.485586 7.0083 0.606557 6.91369 0.768987C6.81908 0.931407 6.78892 1.12343 6.82916 1.30704C6.8694 1.49064 6.97712 1.65244 7.131 1.76041C7.2849 1.86837 7.4736 1.91462 7.66 1.89C8.1007 1.79789 8.5497 1.75098 9 1.75C13.18 1.75 15.58 5.85 16.17 7C15.8103 7.7028 15.3886 8.3721 14.91 9C14.824 9.1107 14.7708 9.2433 14.7564 9.3827C14.7419 9.5221 14.7668 9.6627 14.8282 9.7887C14.8897 9.9147 14.9851 10.0209 15.1039 10.0954C15.2226 10.1699 15.3598 10.2096 15.5 10.21C15.6139 10.2096 15.7262 10.1833 15.8285 10.1331C15.9307 10.0828 16.0201 10.01 16.09 9.92C16.7198 9.1202 17.2566 8.2512 17.69 7.33C17.7338 7.2308 17.7564 7.1235 17.7564 7.015C17.7564 6.9065 17.7338 6.7992 17.69 6.7Z" fill="#475569"/>
<path d="M3.53002 0.470026C3.38784 0.337546 3.19979 0.265426 3.00549 0.268846C2.81119 0.272276 2.62581 0.350987 2.48839 0.488407C2.35098 0.625817 2.27227 0.811206 2.26884 1.00551C2.26541 1.19981 2.33754 1.38785 2.47002 1.53003L3.39002 2.45003C2.0873 3.64844 1.03974 5.0973 0.310017 6.71C0.270687 6.8034 0.250427 6.9037 0.250427 7.005C0.250427 7.1064 0.270687 7.2067 0.310017 7.3C0.430017 7.56 3.17002 13.75 9.00003 13.75C10.5593 13.7577 12.0863 13.3056 13.39 12.45L14.47 13.53C14.6106 13.6705 14.8012 13.7494 15 13.7494C15.1987 13.7494 15.3894 13.6705 15.53 13.53C15.6704 13.3894 15.7493 13.1988 15.7493 13C15.7493 12.8013 15.6704 12.6107 15.53 12.47L3.53002 0.470026ZM7.36003 6.47L9.57003 8.69C9.26033 8.7927 8.92853 8.8097 8.60993 8.7393C8.29133 8.6689 7.99763 8.5137 7.76003 8.29C7.51803 8.0514 7.35113 7.7472 7.28013 7.4149C7.20903 7.0826 7.23683 6.7367 7.36003 6.42V6.47ZM9.00003 12.25C4.81002 12.25 2.42002 8.14 1.83002 7C2.4827 5.6863 3.37071 4.50345 4.45002 3.51003L6.24002 5.3C5.85584 5.9209 5.69266 6.6534 5.77693 7.3787C5.86119 8.104 6.18796 8.7795 6.70425 9.2958C7.22053 9.8121 7.89613 10.1389 8.62133 10.2231C9.34663 10.3074 10.0791 10.1442 10.7 9.76L12.31 11.37C11.3052 11.954 10.1622 12.2579 9.00003 12.25Z" fill="#475569"/>
</svg>
