<svg width="36" height="36" viewBox="0 0 36 36" fill="none" xmlns="http://www.w3.org/2000/svg">
<path d="M33.75 18C33.75 13.8228 32.0906 9.81677 29.1369 6.86307C26.1832 3.90938 22.1771 2.25001 18 2.25001C14.034 2.24634 10.2126 3.73904 7.2992 6.42992C4.38576 9.1208 2.59474 12.8118 2.28389 16.7655C1.97305 20.7193 3.16526 24.6448 5.62239 27.7579C8.07952 30.8711 11.6207 32.9426 15.5385 33.5588V22.5518H11.5425V18H15.5407V14.5305C15.5407 10.584 17.892 8.40151 21.4897 8.40151C23.2132 8.40151 25.0155 8.70976 25.0155 8.70976V12.5865H23.0287C21.0712 12.5865 20.4637 13.8015 20.4637 15.0458V18H24.831L24.1335 22.5518H20.4615V33.5588C24.1661 32.9721 27.5399 31.0828 29.9758 28.2307C32.4118 25.3785 33.7501 21.7508 33.75 18Z" fill="#1877F2"/>
<path d="M24.1312 22.5518L24.8287 18H20.4615V15.0458C20.4615 13.8015 21.069 12.5865 23.0265 12.5865H25.0132V8.70751C25.0132 8.70751 23.211 8.39926 21.4875 8.39926C17.8875 8.39926 15.5385 10.5818 15.5385 14.5283V18H11.5425V22.5518H15.5407V33.5588C17.1717 33.8154 18.8328 33.8154 20.4637 33.5588V22.5518H24.1312Z" fill="white"/>
</svg>
