<svg width="36" height="36" viewBox="0 0 36 36" fill="none" xmlns="http://www.w3.org/2000/svg">
<path d="M33.7516 18.3498C33.7516 17.0548 33.6444 16.1098 33.4123 15.1298H18.323V20.9747H27.1801C27.0016 22.4273 26.0372 24.6148 23.8943 26.0847L23.8643 26.2805L28.6353 29.9025L28.9658 29.9348C32.0015 27.1873 33.7516 23.1447 33.7516 18.3498Z" fill="#4285F4"/>
<path d="M18.3221 33.7498C22.6613 33.7498 26.3041 32.3497 28.9649 29.9347L23.8934 26.0846C22.5363 27.0122 20.7149 27.6596 18.3221 27.6596C14.0722 27.6596 10.465 24.9121 9.17921 21.1147L8.99073 21.1303L4.02984 24.8929L3.96497 25.0696C6.60779 30.2146 12.0364 33.7498 18.3221 33.7498Z" fill="#34A853"/>
<path d="M9.17959 21.1151C8.84031 20.1351 8.64396 19.0851 8.64396 18.0001C8.64396 16.9151 8.84031 15.8651 9.16174 14.8851L9.15275 14.6763L4.12968 10.8534L3.96534 10.93C2.8761 13.0651 2.2511 15.4626 2.2511 18.0001C2.2511 20.5376 2.8761 22.935 3.96534 25.0701L9.17959 21.1151Z" fill="#FBBC05"/>
<path d="M18.3222 8.33996C21.34 8.33996 23.3757 9.61746 24.5365 10.685L29.0721 6.345C26.2865 3.80751 22.6614 2.25 18.3222 2.25C12.0364 2.25 6.6078 5.78498 3.96497 10.9299L9.16139 14.885C10.4651 11.0875 14.0722 8.33996 18.3222 8.33996Z" fill="#EB4335"/>
</svg>
