<svg width="28" height="28" viewBox="0 0 28 28" fill="none" xmlns="http://www.w3.org/2000/svg">
<rect width="28" height="28" rx="5.65113" fill="#4646BB"/>
<path d="M18.25 6H9.75C8.62324 6.00141 7.54302 6.47012 6.74629 7.30331C5.94955 8.1365 5.50135 9.26614 5.5 10.4444V17.5556C5.50135 18.7339 5.94955 19.8635 6.74629 20.6967C7.54302 21.5299 8.62324 21.9986 9.75 22H18.25C19.3768 21.9986 20.457 21.5299 21.2537 20.6967C22.0505 19.8635 22.4987 18.7339 22.5 17.5556V10.4444C22.4987 9.26614 22.0505 8.1365 21.2537 7.30331C20.457 6.47012 19.3768 6.00141 18.25 6ZM9.75 7.77778H18.25C18.9263 7.77778 19.5749 8.05873 20.0531 8.55883C20.5313 9.05892 20.8 9.7372 20.8 10.4444V14.5209L17.7544 11.3333C17.4347 10.9999 17.0015 10.8127 16.55 10.8127C16.0985 10.8127 15.6653 10.9999 15.3456 11.3333L11.45 15.4098L10.9545 14.8889C10.6347 14.5555 10.2015 14.3683 9.75 14.3683C9.29845 14.3683 8.86533 14.5555 8.54555 14.8889L7.2 16.2987V10.4444C7.2 9.7372 7.46866 9.05892 7.94688 8.55883C8.4251 8.05873 9.0737 7.77778 9.75 7.77778ZM9.325 11.3333C9.325 11.0696 9.39978 10.8118 9.53988 10.5926C9.67998 10.3733 9.8791 10.2024 10.1121 10.1015C10.3451 10.0006 10.6014 9.97417 10.8487 10.0256C11.0961 10.0771 11.3232 10.2041 11.5016 10.3905C11.6799 10.577 11.8013 10.8146 11.8505 11.0732C11.8997 11.3319 11.8744 11.5999 11.7779 11.8436C11.6814 12.0872 11.518 12.2955 11.3084 12.442C11.0987 12.5885 10.8522 12.6667 10.6 12.6667C10.2618 12.6667 9.93755 12.5262 9.69844 12.2761C9.45933 12.0261 9.325 11.687 9.325 11.3333Z" fill="#F8FAFC"/>
</svg>
