<svg width="28" height="28" viewBox="0 0 28 28" fill="none" xmlns="http://www.w3.org/2000/svg">
<rect width="28" height="28" rx="5.65113" fill="#4646BB"/>
<path d="M11.1506 6.00001C10.5525 5.99991 9.99337 5.99981 9.53658 6.06806C9.02056 6.14515 8.49043 6.32738 8.06668 6.79821C7.65708 7.25332 7.51248 7.79564 7.4498 8.31366C7.3912 8.79787 7.39126 9.3981 7.3913 10.0759V10.8696C7.3913 11.4458 7.85848 11.913 8.43478 11.913C9.01108 11.913 9.47826 11.4458 9.47826 10.8696V10.1353C9.47826 9.37992 9.48007 8.90799 9.52164 8.56436C9.54116 8.40314 9.56553 8.31024 9.58525 8.257C9.60189 8.21208 9.61377 8.19891 9.61771 8.19453L9.61883 8.19322C9.62074 8.19094 9.62213 8.18927 9.63467 8.18352C9.6578 8.17295 9.71713 8.1512 9.84492 8.13211C10.1289 8.08969 10.5289 8.08696 11.2174 8.08696H12.9565V19.913H10.5217C9.94544 19.913 9.47826 20.3802 9.47826 20.9565C9.47826 21.5328 9.94544 22 10.5217 22H18.1739C18.7502 22 19.2174 21.5328 19.2174 20.9565C19.2174 20.3802 18.7502 19.913 18.1739 19.913H15.0435V8.08696H16.7826C17.4712 8.08696 17.8712 8.08969 18.1551 8.13211C18.2829 8.1512 18.3423 8.17295 18.3654 8.18352C18.3779 8.18927 18.3793 8.19094 18.3812 8.19322C18.3853 8.1976 18.3982 8.21208 18.4147 8.257C18.4345 8.31024 18.4589 8.40314 18.4783 8.56436C18.5199 8.90799 18.5217 9.37992 18.5217 10.1353V10.8696C18.5217 11.4458 18.9889 11.913 19.5652 11.913C20.1415 11.913 20.6087 11.4458 20.6087 10.8696V10.0759C20.6087 9.39812 20.6088 8.79785 20.5503 8.31366C20.4875 7.79564 20.343 7.25332 19.9334 6.79821C19.5096 6.32738 18.9795 6.14515 18.4634 6.06806C18.0067 5.99981 17.4475 5.99991 16.8494 6.00001H11.1506Z" fill="#F8FAFC"/>
</svg>
